<?xml version="1.0" encoding="utf-8"?>
<!-- Generator: Adobe Illustrator 25.2.1, SVG Export Plug-In . SVG Version: 6.00 Build 0)  -->
<svg version="1.1" id="Camada_1" xmlns="http://www.w3.org/2000/svg" xmlns:xlink="http://www.w3.org/1999/xlink" x="0px" y="0px"
	 viewBox="0 0 24 24" style="enable-background:new 0 0 24 24;" xml:space="preserve">
<style type="text/css">
	.st0{fill:#17171A;}
</style>
<path class="st0" d="M23.6,22L16,14.4c1.2-1.5,1.8-3.4,1.8-5.4c0-2.3-0.9-4.6-2.6-6.2c-1.7-1.7-3.9-2.6-6.2-2.6
	c-2.3,0-4.6,0.9-6.2,2.6C1.2,4.5,0.3,6.7,0.3,9.1c0,2.3,0.9,4.6,2.6,6.2c1.7,1.7,3.9,2.6,6.2,2.6c2,0,3.8-0.6,5.4-1.8l7.6,7.6
	c0,0,0,0,0.1,0.1c0,0,0.1,0,0.1,0c0,0,0.1,0,0.1,0c0,0,0.1,0,0.1-0.1l1.3-1.3c0,0,0,0,0.1-0.1c0,0,0-0.1,0-0.1
	C23.7,22.2,23.7,22.1,23.6,22C23.7,22.1,23.7,22.1,23.6,22z M13.7,13.7c-1.2,1.2-2.9,1.9-4.6,1.9c-1.8,0-3.4-0.7-4.6-1.9
	c-1.2-1.2-1.9-2.9-1.9-4.6c0-1.8,0.7-3.4,1.9-4.6c1.2-1.2,2.9-1.9,4.6-1.9c1.8,0,3.4,0.7,4.6,1.9c1.2,1.2,1.9,2.9,1.9,4.6
	C15.6,10.8,15,12.5,13.7,13.7z"/>
</svg>
